<svg width="509" height="192" viewBox="0 0 509 192" fill="none" xmlns="http://www.w3.org/2000/svg">
<path d="M12.5977 191.276C5.97023 191.276 0.597656 185.904 0.597656 179.276L0.597656 0.276367L508.598 0.276367V179.276C508.598 185.904 503.225 191.276 496.598 191.276L12.5977 191.276Z" fill="url(#paint0_linear_51_8167)"/>
<mask id="mask0_51_8167" style="mask-type:alpha" maskUnits="userSpaceOnUse" x="0" y="18" width="509" height="174">
<rect x="0.597656" y="191.276" width="173" height="508" rx="12" transform="rotate(-90 0.597656 191.276)" fill="url(#paint1_linear_51_8167)"/>
</mask>
<g mask="url(#mask0_51_8167)">
<path opacity="0.1" d="M260.333 94.2764C350.765 94.2764 423.36 164.507 423.36 250.276C423.36 336.046 350.765 406.276 260.333 406.276C169.901 406.276 97.3066 336.046 97.3066 250.276C97.3066 164.507 169.901 94.2764 260.333 94.2764Z" stroke="#FF9900" stroke-width="20"/>
<path opacity="0.1" d="M265.545 26.2066C395.22 26.2066 499.562 126.949 499.562 250.276C499.562 373.604 395.22 474.346 265.545 474.346C135.869 474.346 31.5279 373.604 31.5279 250.276C31.5279 126.949 135.869 26.2066 265.545 26.2066Z" stroke="#FF9900" stroke-width="21.8605"/>
</g>
<defs>
<linearGradient id="paint0_linear_51_8167" x1="12.0209" y1="165.914" x2="245.937" y2="-171.693" gradientUnits="userSpaceOnUse">
<stop stop-color="#AE4150"/>
<stop offset="0.140625" stop-color="#B04C53"/>
<stop offset="0.395833" stop-color="#C44337"/>
<stop offset="0.640625" stop-color="#94452C"/>
<stop offset="0.786458" stop-color="#7D3D1C"/>
<stop offset="1" stop-color="#4E2907"/>
</linearGradient>
<linearGradient id="paint1_linear_51_8167" x1="23.5698" y1="202.7" x2="348.276" y2="406.475" gradientUnits="userSpaceOnUse">
<stop stop-color="#D6EBDC"/>
<stop offset="1" stop-color="#E3FFA7"/>
</linearGradient>
</defs>
</svg>
