<svg width="509" height="207" viewBox="0 0 509 207" fill="none" xmlns="http://www.w3.org/2000/svg">
<path d="M12.4404 206.878C5.81301 206.878 0.44043 201.505 0.44043 194.878L0.44043 0.87793L508.44 0.87793V194.878C508.44 201.505 503.068 206.878 496.44 206.878L12.4404 206.878Z" fill="url(#paint0_linear_51_8160)"/>
<mask id="mask0_51_8160" style="mask-type:alpha" maskUnits="userSpaceOnUse" x="0" y="20" width="509" height="187">
<rect x="0.44043" y="206.878" width="186.586" height="508" rx="12" transform="rotate(-90 0.44043 206.878)" fill="url(#paint1_linear_51_8160)"/>
</mask>
<g mask="url(#mask0_51_8160)">
<path opacity="0.1" d="M260.176 101.475C349.894 101.475 423.202 176.831 423.202 270.512C423.202 364.193 349.894 439.548 260.176 439.548C170.458 439.548 97.1494 364.193 97.1494 270.512C97.1494 176.831 170.458 101.475 260.176 101.475Z" stroke="url(#paint2_linear_51_8160)" stroke-width="20"/>
<path opacity="0.1" d="M265.388 27.9865C394.283 27.9865 499.404 136.214 499.404 270.512C499.404 404.81 394.283 513.037 265.388 513.037C136.492 513.037 31.3707 404.81 31.3707 270.512C31.3707 136.214 136.492 27.9865 265.388 27.9865Z" stroke="url(#paint3_linear_51_8160)" stroke-width="21.8605"/>
</g>
<defs>
<linearGradient id="paint0_linear_51_8160" x1="11.8637" y1="179.524" x2="270.281" y2="-166.287" gradientUnits="userSpaceOnUse">
<stop stop-color="#7B9582"/>
<stop offset="1" stop-color="#606B47"/>
</linearGradient>
<linearGradient id="paint1_linear_51_8160" x1="25.2167" y1="218.301" x2="359.982" y2="444.889" gradientUnits="userSpaceOnUse">
<stop stop-color="#131413"/>
<stop offset="1" stop-color="#E3FFA7"/>
</linearGradient>
<linearGradient id="paint2_linear_51_8160" x1="15.9032" y1="187.137" x2="359.185" y2="438.265" gradientUnits="userSpaceOnUse">
<stop stop-color="#7AFF00"/>
<stop offset="1" stop-color="#68AE28"/>
</linearGradient>
<linearGradient id="paint3_linear_51_8160" x1="-80.4201" y1="152.481" x2="405.55" y2="507.993" gradientUnits="userSpaceOnUse">
<stop stop-color="#7AFF00"/>
<stop offset="1" stop-color="#68AE28"/>
</linearGradient>
</defs>
</svg>
