<svg width="1432" height="704" viewBox="0 0 1432 704" fill="none" xmlns="http://www.w3.org/2000/svg">
<mask id="mask0_21_6990" style="mask-type:alpha" maskUnits="userSpaceOnUse" x="0" y="-2" width="1440" height="706">
<rect y="-2" width="1440" height="706" fill="#C20001"/>
</mask>
<g mask="url(#mask0_21_6990)">
<rect y="-2" width="1440" height="706" fill="#C20001"/>
<rect y="-2" width="1440" height="706" fill="#882020"/>
<circle opacity="0.5" cx="720" cy="620" r="192" stroke="url(#paint0_linear_21_6990)" stroke-width="24"/>
<circle opacity="0.3" cx="720" cy="620" r="246" stroke="url(#paint1_linear_21_6990)" stroke-width="24"/>
<circle opacity="0.1" cx="720" cy="620" r="301" stroke="url(#paint2_linear_21_6990)" stroke-width="24"/>
<g opacity="0.6">
<path fill-rule="evenodd" clip-rule="evenodd" d="M1275.11 520.384C1275.47 520.165 1275.78 519.706 1276.03 519.196C1279.31 520.518 1281.61 523.642 1281.61 527.284C1281.61 532.124 1277.55 536.047 1272.53 536.047C1270.47 536.047 1268.57 535.386 1267.05 534.272C1266.55 534.038 1266.13 533.814 1265.8 533.63C1265.28 533.346 1264.93 533.159 1264.72 533.188C1264.09 533.274 1264.27 533.842 1264.44 534.359C1264.55 534.709 1264.66 535.036 1264.49 535.171C1264.33 535.312 1263.78 534.796 1263.14 534.193C1262.26 533.372 1261.22 532.391 1260.73 532.686C1260.34 532.919 1260.71 533.551 1261.18 534.326L1261.21 534.383C1261.41 534.71 1261.63 535.044 1261.84 535.348C1262.26 535.966 1262.6 536.464 1262.43 536.548C1262.22 536.65 1260.8 535.701 1259.6 534.383C1259.13 533.875 1258.68 533.323 1258.27 532.811V532.811C1257.35 531.689 1256.59 530.755 1256.16 530.866C1255.65 530.999 1256.04 532.045 1256.61 533.051C1256.88 533.522 1257.19 534.001 1257.46 534.416V534.416C1257.89 535.062 1258.21 535.551 1258.09 535.612C1257.93 535.693 1256.55 534.362 1255.61 532.686C1255.05 531.69 1254.58 530.589 1254.2 529.698C1253.79 528.732 1253.49 528.012 1253.28 527.94C1252.58 527.688 1252.58 529.098 1252.86 531.133C1252.9 531.398 1252.96 531.677 1253.02 531.96C1255.75 540.663 1264.13 547 1274.04 547C1286.17 547 1296 537.519 1296 525.824C1296 514.693 1287.1 505.568 1275.78 504.713C1275.8 504.189 1276.07 503.149 1276.07 503.149C1276.07 503.149 1278.07 498.384 1278.18 497.365C1278.18 497.298 1278.19 497.224 1278.2 497.146C1278.32 496.046 1278.56 494 1276.77 494C1275.82 494 1275.37 494.699 1274.87 495.499V495.499C1274.67 495.806 1274.47 496.128 1274.22 496.43C1272.45 498.611 1269.48 501.334 1267.79 502.785C1264.22 505.851 1260.72 508.371 1258.68 509.841L1258.68 509.841C1257.75 510.509 1257.12 510.96 1256.93 511.147C1255.46 512.552 1250.22 521.875 1250.22 521.875C1250.22 521.875 1248.53 524.866 1249.13 525.473C1249.73 526.08 1251.18 525.941 1251.18 525.941C1251.18 525.941 1270.7 521.525 1272.45 521.177C1272.92 521.083 1273.25 521.029 1273.51 520.987C1274.2 520.875 1274.33 520.854 1275.11 520.384ZM1261.31 514.71C1260.26 515.692 1258.52 518.036 1258.52 518.036C1258.52 518.036 1261.75 518.232 1263.53 516.565C1265.31 514.898 1264.9 512.057 1264.9 512.057C1264.9 512.057 1262.35 513.728 1261.31 514.71Z" fill="#DADD59" fill-opacity="0.59"/>
<path fill-rule="evenodd" clip-rule="evenodd" d="M366.447 329.055C366.437 329.028 366.458 329 366.487 329H383.941C383.959 329 383.976 329.012 383.981 329.029L391.998 354.131C392.007 354.158 391.986 354.185 391.957 354.185H380.338C380.324 354.185 380.313 354.198 380.317 354.211L386.981 376.947C386.994 376.991 386.935 377.02 386.906 376.983L361.009 343.605C360.987 343.578 361.008 343.539 361.043 343.539H371.588C371.603 343.539 371.613 343.525 371.608 343.511L366.447 329.055Z" fill="#DADD59" fill-opacity="0.59"/>
<path fill-rule="evenodd" clip-rule="evenodd" d="M1223.56 227.474C1224.25 224.989 1222.9 219.881 1222.9 219.881C1222.9 219.881 1221.93 224.042 1220.41 225.58C1219.11 226.892 1217.51 227.802 1215.23 228.041C1217.1 227.152 1218.38 225.296 1218.38 223.151C1218.38 220.141 1215.85 217.7 1212.73 217.7C1209.61 217.7 1207.08 220.141 1207.08 223.151C1207.08 223.974 1207.27 224.753 1207.61 225.453C1205.65 223.926 1205.35 221.48 1205.35 221.48C1205.35 221.48 1203.17 230.36 1209.17 234.538C1215.18 238.715 1226.95 235.125 1226.95 235.125C1226.95 235.125 1210.11 246.75 1197.63 234.097C1186.88 223.198 1194.83 208.848 1194.83 208.848C1194.83 208.848 1194.48 210.179 1194.48 211.724C1194.48 213.27 1195.34 214.445 1195.34 214.445C1195.34 214.445 1197.88 209.178 1199.87 207.035C1201.74 205.008 1204.09 203.363 1206.12 201.943C1207.69 200.85 1209.06 199.889 1209.88 198.989C1214.4 194.031 1211.63 185 1211.63 185C1211.63 185 1216.72 189.406 1218.15 195.097C1218.69 197.267 1218.34 199.735 1218.03 201.942C1217.52 205.525 1217.11 208.421 1220.77 208.233C1226.68 207.929 1221.54 198.989 1221.54 198.989C1221.54 198.989 1234.95 205.902 1233.95 217.994C1232.94 230.086 1219.29 232.835 1219.29 232.835C1219.29 232.835 1222.86 229.959 1223.56 227.474Z" fill="#DADD59" fill-opacity="0.59"/>
<path fill-rule="evenodd" clip-rule="evenodd" d="M286.427 509.848C282.368 510.051 277.721 510.051 276.142 509.848C263.824 508.263 254 499.457 254 487.553C254 475.65 264.074 466 276.5 466C288.926 466 299 475.65 299 487.553C299 493.089 296.821 498.138 293.24 501.955C292.267 502.992 293.601 503.719 294.957 504.457C296.287 505.182 297.637 505.918 296.852 506.967C295.988 508.124 291.3 509.604 286.427 509.848ZM273.336 484.859C273.336 486.719 271.762 488.227 269.82 488.227C267.879 488.227 266.305 486.719 266.305 484.859C266.305 483.612 267.013 482.523 268.065 481.941C268.125 483.562 269.489 484.859 271.162 484.859H273.336V484.859ZM284.232 481.941C284.172 483.562 282.808 484.859 281.135 484.859H278.961V484.859C278.961 486.719 280.535 488.227 282.477 488.227C284.418 488.227 285.992 486.719 285.992 484.859C285.992 483.612 285.284 482.523 284.232 481.941Z" fill="#DADD59" fill-opacity="0.59"/>
<path fill-rule="evenodd" clip-rule="evenodd" d="M1091.22 439.872C1091.05 439.711 1090.88 439.547 1090.71 439.38C1081.76 430.554 1081.76 416.243 1090.71 407.417C1099.65 398.59 1128.16 398 1128.16 398C1128.16 398 1132.05 430.554 1123.1 439.38C1115.16 447.219 1102.83 448.096 1093.9 442.011L1101.1 433.303L1112.59 430.854L1103.21 429.928L1109.17 423.936L1115.96 422.469L1110.59 420.9L1115.96 411.344L1108.33 419.795L1105.38 415.69L1106.41 422.469L1101.1 428.385L1098.63 420.9V430.854L1091.22 439.872Z" fill="#DADD59" fill-opacity="0.59"/>
<path fill-rule="evenodd" clip-rule="evenodd" d="M1347.47 333.712L1333.92 327L1334.33 342.003L1347.13 348.34L1347.47 333.712ZM1362.52 342.185L1362.35 327.062L1349.17 334.238L1349.33 348.518L1362.52 342.185ZM1362.51 358.362L1375.57 350.893L1362.51 344.022L1349.45 350.881L1362.51 358.362ZM1347.12 350.893L1334.07 358.362L1321 350.881L1334.06 344.022L1347.12 350.893ZM1362.72 374.557L1349.16 367.844L1349.51 353.216L1362.31 359.554L1362.72 374.557ZM1334.21 359.569L1334.39 374.693L1347.57 367.517L1347.41 353.237L1334.21 359.569Z" fill="#DADD59" fill-opacity="0.59"/>
<path fill-rule="evenodd" clip-rule="evenodd" d="M220 343.548C220 353.187 212.165 361 202.5 361C192.835 361 185 353.187 185 343.548C185 334.174 201.553 308.429 202.461 307.024C202.482 306.992 202.518 306.992 202.539 307.024C203.447 308.429 220 334.174 220 343.548ZM199.583 355.405C190.702 353.46 192.222 343.613 192.222 343.613C192.222 343.613 194.647 349.557 200.532 351.483C206.416 353.408 213.528 350.584 213.528 350.584C213.528 350.584 208.463 357.35 199.583 355.405Z" fill="#DADD59" fill-opacity="0.59"/>
<path fill-rule="evenodd" clip-rule="evenodd" d="M389.754 101C396.786 101 402.806 97.0545 405.291 91.4613C405.321 91.3931 395.313 94.0872 395.632 93.1348C395.775 92.7096 401.91 90.4468 406.38 87.8076C408.949 86.2906 410.132 83.0793 410.132 83.0793C410.132 83.0793 405.803 85.201 403.615 85.7391C399.206 86.8239 395.325 86.7071 395.325 86.594C395.325 86.3496 401.77 85.1133 410.727 79.6022C414.941 77.01 416.085 72.5449 416.085 72.5449C416.085 72.5449 411.453 75.3307 408.653 76.2504C402.012 78.4315 395.951 79.0887 395.951 78.7936C395.951 78.1617 401.285 76.6811 406.939 73.9149C409.879 72.4767 412.425 70.5977 415.376 68.508C420.204 65.0891 421 59 421 59C421 59 416.238 62.1008 413.914 63.1305C404.326 67.3796 395.859 69.6084 389.754 70.091C380.539 70.8194 373 77.3109 373 85.7391C373 94.1675 380.501 101 389.754 101Z" fill="#DADD59" fill-opacity="0.59"/>
</g>
</g>
<defs>
<linearGradient id="paint0_linear_21_6990" x1="815" y1="332" x2="516" y2="727" gradientUnits="userSpaceOnUse">
<stop/>
<stop offset="1" stop-opacity="0"/>
</linearGradient>
<linearGradient id="paint1_linear_21_6990" x1="840.147" y1="255.765" x2="462" y2="755.324" gradientUnits="userSpaceOnUse">
<stop/>
<stop offset="1" stop-opacity="0"/>
</linearGradient>
<linearGradient id="paint2_linear_21_6990" x1="865.76" y1="178.118" x2="407" y2="784.172" gradientUnits="userSpaceOnUse">
<stop/>
<stop offset="0.786458" stop-color="#1B0303"/>
<stop offset="1" stop-color="#E81414" stop-opacity="0"/>
<stop offset="1"/>
</linearGradient>
</defs>
</svg>
