<svg width="18" height="18" viewBox="0 0 18 18" fill="none" xmlns="http://www.w3.org/2000/svg">
<path d="M1.03235e-05 9C1.04269e-05 7.81811 0.232802 6.64778 0.685095 5.55585C1.13739 4.46392 1.80032 3.47177 2.63605 2.63605C3.47178 1.80032 4.46393 1.13738 5.55586 0.685092C6.64779 0.2328 7.81811 8.59495e-06 9.00001 8.74994e-06C10.1819 8.90493e-06 11.3522 0.232801 12.4442 0.685093C13.5361 1.13739 14.5282 1.80032 15.364 2.63605C16.1997 3.47177 16.8626 4.46393 17.3149 5.55586C17.7672 6.64779 18 7.81811 18 9.00001L9.00001 9L1.03235e-05 9Z" fill="#DBDD64"/>
<circle cx="9" cy="9" r="8.57812" stroke="#DBDD64" stroke-width="0.843755"/>
<circle cx="9.00027" cy="9.00002" r="2.85085" fill="#DBDD64" stroke="#121212" stroke-width="0.843755"/>
<path d="M6.13685 9H0.000488281" stroke="#DBDD64" stroke-width="0.843755"/>
<path d="M18 9L11.8125 9" stroke="#DBDD64" stroke-width="0.843755"/>
</svg>
